<svg width="640" height="640" viewBox="0 0 640 640" fill="none" xmlns="http://www.w3.org/2000/svg">
  <defs>
    <linearGradient id="gold" x1="120" y1="80" x2="520" y2="520" gradientUnits="userSpaceOnUse">
      <stop offset="0" stop-color="#FFF3A0" />
      <stop offset="0.4" stop-color="#FFD53D" />
      <stop offset="1" stop-color="#C79200" />
    </linearGradient>
    <linearGradient id="green" x1="320" y1="120" x2="320" y2="480" gradientUnits="userSpaceOnUse">
      <stop offset="0" stop-color="#1F7A4B" />
      <stop offset="1" stop-color="#0E442C" />
    </linearGradient>
    <linearGradient id="soil" x1="200" y1="150" x2="470" y2="470" gradientUnits="userSpaceOnUse">
      <stop offset="0" stop-color="#563116" />
      <stop offset="1" stop-color="#2E1609" />
    </linearGradient>
    <linearGradient id="drop" x1="320" y1="150" x2="320" y2="460" gradientUnits="userSpaceOnUse">
      <stop offset="0" stop-color="#D8FFF3" />
      <stop offset="0.45" stop-color="#7FE2AE" />
      <stop offset="1" stop-color="#1B6B44" />
    </linearGradient>
    <filter id="shadow" x="0" y="0" width="640" height="640" filterUnits="userSpaceOnUse">
      <feDropShadow dx="0" dy="16" stdDeviation="18" flood-color="#000000" flood-opacity="0.18" />
    </filter>
  </defs>

  <g filter="url(#shadow)">
    <path d="M320 82L546 474H94L320 82Z" fill="url(#soil)" stroke="url(#gold)" stroke-width="20" stroke-linejoin="round" />
    <path d="M320 112L506 436H134L320 112Z" fill="url(#soil)" opacity="0.42" />

    <ellipse cx="320" cy="117" rx="104" ry="36" fill="url(#green)" stroke="url(#gold)" stroke-width="6" />
    <text x="320" y="129" text-anchor="middle" font-family="Trebuchet MS, Arial, sans-serif" font-size="34" font-weight="700" fill="#FFF7B5">Biologia</text>

    <text x="126" y="335" transform="rotate(-61 126 335)" font-family="Trebuchet MS, Arial, sans-serif" font-size="44" font-weight="800" fill="#FFD83F" stroke="#533900" stroke-width="3">SOIL</text>
    <text x="464" y="333" transform="rotate(58 464 333)" font-family="Trebuchet MS, Arial, sans-serif" font-size="44" font-weight="800" fill="#FFD83F" stroke="#533900" stroke-width="3">CARE</text>

    <path d="M320 154C372 214 426 288 426 370C426 442 379 492 320 492C261 492 214 442 214 370C214 288 268 214 320 154Z" fill="url(#drop)" stroke="#F3F7D0" stroke-width="8" />
    <path d="M320 172C360 225 396 287 396 361C396 419 362 454 320 454C278 454 244 419 244 361C244 287 280 225 320 172Z" fill="url(#green)" opacity="0.95" />

    <path d="M318 214C332 235 338 263 338 325C338 385 332 420 320 447C308 420 302 385 302 325C302 263 308 235 318 214Z" fill="#F4E55A" />
    <path d="M288 282C270 258 250 252 231 260C248 280 262 312 266 348C283 331 294 309 288 282Z" fill="#7AD25A" />
    <path d="M352 278C370 254 392 248 412 258C398 281 388 312 386 346C367 330 355 307 352 278Z" fill="#D7D745" />
    <path d="M292 347C266 326 234 324 206 336C226 360 238 384 244 408C268 392 285 373 292 347Z" fill="#DAB43B" />
    <path d="M348 345C372 324 406 320 432 334C416 358 406 386 402 411C378 396 358 375 348 345Z" fill="#84CF52" />

    <ellipse cx="256" cy="372" rx="18" ry="15" fill="#F7D948" />
    <ellipse cx="288" cy="388" rx="20" ry="16" fill="#F7D948" />
    <ellipse cx="321" cy="400" rx="22" ry="17" fill="#F7D948" />
    <ellipse cx="354" cy="395" rx="19" ry="15" fill="#F7D948" />

    <ellipse cx="164" cy="466" rx="86" ry="34" fill="#234F23" stroke="url(#gold)" stroke-width="6" />
    <text x="164" y="477" text-anchor="middle" font-family="Trebuchet MS, Arial, sans-serif" font-size="28" font-weight="700" fill="#FFF7B5">Quimica</text>

    <ellipse cx="476" cy="466" rx="86" ry="34" fill="#234F23" stroke="url(#gold)" stroke-width="6" />
    <text x="476" y="477" text-anchor="middle" font-family="Trebuchet MS, Arial, sans-serif" font-size="28" font-weight="700" fill="#FFF7B5">Fisica</text>

    <text x="320" y="540" text-anchor="middle" font-family="Trebuchet MS, Arial, sans-serif" font-size="58" font-weight="900" fill="#2D2207">SYSTEM</text>
    <text x="320" y="585" text-anchor="middle" font-family="Trebuchet MS, Arial, sans-serif" font-size="34" font-weight="900" fill="#365C18">DAMOS VIDA AL SUELO</text>
  </g>
</svg>
